<svg width="24" height="24" viewBox="0 0 24 24" fill="none" xmlns="http://www.w3.org/2000/svg">
<path fill-rule="evenodd" clip-rule="evenodd" d="M10.2929 19.7071C10.6834 20.0976 11.3166 20.0976 11.7071 19.7071C12.0976 19.3166 12.0976 18.6834 11.7071 18.2929L6.41422 13L20 13C20.5523 13 21 12.5523 21 12C21 11.4477 20.5523 11 20 11L6.41421 11L11.7071 5.70711C12.0976 5.31658 12.0976 4.68342 11.7071 4.29289C11.3166 3.90237 10.6834 3.90237 10.2929 4.29289L3.29289 11.2929C3.28786 11.2979 3.2829 11.303 3.27798 11.3081C3.1058 11.4878 3 11.7315 3 12C3 12.2766 3.11231 12.527 3.29382 12.708L10.2929 19.7071Z" fill="currentColor"/>
</svg>
