<svg width="176" height="48" viewBox="0 0 176 48" fill="none" xmlns="http://www.w3.org/2000/svg">
<path d="M16.48 30.504H9.312C9.07733 31.2933 8.82133 32.1147 8.544 32.968C8.288 33.8213 8.07467 34.5253 7.904 35.08C7.69067 35.1653 7.456 35.24 7.2 35.304C6.96533 35.368 6.66667 35.4 6.304 35.4C5.57867 35.4 5.01333 35.2613 4.608 34.984C4.20267 34.6853 4 34.2693 4 33.736C4 33.48 4.032 33.2346 4.096 33C4.18133 32.744 4.27733 32.456 4.384 32.136C4.55467 31.5386 4.77867 30.824 5.056 29.992C5.35467 29.1386 5.664 28.2213 5.984 27.24C6.32533 26.2373 6.688 25.2133 7.072 24.168C7.456 23.1013 7.81867 22.0773 8.16 21.096C8.52267 20.0933 8.864 19.1653 9.184 18.312C9.52533 17.4373 9.81333 16.6906 10.048 16.072C10.3253 15.9226 10.7307 15.7733 11.264 15.624C11.8187 15.4746 12.3733 15.4 12.928 15.4C13.6747 15.4 14.3573 15.5173 14.976 15.752C15.5947 15.9653 15.9893 16.3173 16.16 16.808C16.5867 17.9813 17.056 19.336 17.568 20.872C18.08 22.3866 18.592 23.9546 19.104 25.576C19.6373 27.1973 20.1493 28.7866 20.64 30.344C21.1307 31.9013 21.568 33.2987 21.952 34.536C21.7387 34.7707 21.44 34.9627 21.056 35.112C20.6933 35.2826 20.256 35.368 19.744 35.368C18.9973 35.368 18.464 35.24 18.144 34.984C17.8453 34.7066 17.6107 34.28 17.44 33.704L16.48 30.504ZM12.896 19.048C12.704 19.5813 12.4907 20.1786 12.256 20.84C12.0427 21.5013 11.808 22.1946 11.552 22.92C11.3173 23.624 11.072 24.3493 10.816 25.096C10.56 25.8213 10.3147 26.536 10.08 27.24H15.648L13.056 19.048H12.896Z" fill="#002D74"/>
<path d="M38.7002 17.256C38.7002 17.4906 38.5829 17.8853 38.3483 18.44C38.1136 18.9733 37.7509 19.688 37.2603 20.584C36.7696 21.48 36.1403 22.568 35.3722 23.848C34.6042 25.128 33.6762 26.6106 32.5882 28.296V35.048C32.4176 35.0906 32.1509 35.144 31.7882 35.208C31.4469 35.272 31.0842 35.304 30.7002 35.304C29.8896 35.304 29.3242 35.1546 29.0042 34.856C28.6842 34.5573 28.5243 34.0667 28.5243 33.384V28.328C27.9482 27.496 27.3402 26.5786 26.7002 25.576C26.0602 24.5733 25.4309 23.56 24.8123 22.536C24.1936 21.512 23.6176 20.5093 23.0842 19.528C22.5509 18.5253 22.1029 17.6186 21.7402 16.808C21.9109 16.488 22.1776 16.2 22.5402 15.944C22.9029 15.6666 23.3616 15.528 23.9162 15.528C24.5349 15.528 25.0256 15.6666 25.3882 15.944C25.7722 16.2213 26.1456 16.7013 26.5082 17.384C26.6789 17.6826 26.9456 18.184 27.3083 18.888C27.6923 19.5706 28.0869 20.296 28.4922 21.064C28.9189 21.832 29.3136 22.5573 29.6763 23.24C30.0603 23.9226 30.3269 24.392 30.4762 24.648H30.6362C31.0416 23.8587 31.4256 23.112 31.7882 22.408C32.1509 21.6826 32.5029 20.9786 32.8442 20.296C33.1856 19.592 33.5163 18.888 33.8363 18.184C34.1776 17.4586 34.5296 16.712 34.8923 15.944C35.1483 15.7946 35.4362 15.688 35.7562 15.624C36.0976 15.56 36.4176 15.528 36.7163 15.528C37.2923 15.528 37.7616 15.6773 38.1243 15.976C38.5083 16.2746 38.7002 16.7013 38.7002 17.256Z" fill="#002D74"/>
<path d="M56.605 20.648C56.605 21.608 56.349 22.44 55.837 23.144C55.3463 23.848 54.5997 24.4133 53.597 24.84C54.8343 25.2453 55.7623 25.8533 56.381 26.664C56.9997 27.4746 57.309 28.4347 57.309 29.544C57.309 31.5707 56.573 33.0747 55.101 34.056C53.629 35.0373 51.4957 35.528 48.701 35.528C48.2957 35.528 47.8583 35.5173 47.389 35.496C46.941 35.4746 46.4823 35.432 46.013 35.368C45.5437 35.3253 45.0743 35.2506 44.605 35.144C44.1357 35.0586 43.6983 34.952 43.293 34.824C42.269 34.4826 41.757 33.8533 41.757 32.936V17.288C41.757 16.8826 41.8637 16.5733 42.077 16.36C42.2903 16.1466 42.589 15.976 42.973 15.848C43.6983 15.6133 44.541 15.4533 45.501 15.368C46.461 15.2613 47.4637 15.208 48.509 15.208C51.0903 15.208 53.085 15.656 54.493 16.552C55.901 17.4266 56.605 18.792 56.605 20.648ZM53.085 29.384C53.085 28.5307 52.7757 27.8586 52.157 27.368C51.5597 26.8773 50.685 26.632 49.533 26.632H45.789V31.976C46.1943 32.0826 46.6743 32.1573 47.229 32.2C47.805 32.2426 48.3703 32.264 48.925 32.264C50.2263 32.264 51.2397 32.04 51.965 31.592C52.7117 31.1227 53.085 30.3867 53.085 29.384ZM45.789 23.592H49.021C50.173 23.592 51.0263 23.3573 51.581 22.888C52.157 22.4186 52.445 21.768 52.445 20.936C52.445 19.2506 51.1437 18.408 48.541 18.408C48.0077 18.408 47.4957 18.4293 47.005 18.472C46.5357 18.5146 46.1303 18.568 45.789 18.632V23.592Z" fill="#002D74"/>
<path d="M69.289 35.592C68.009 35.592 66.8677 35.4213 65.865 35.08C64.8623 34.7173 64.009 34.216 63.305 33.576C62.6223 32.9146 62.0997 32.136 61.737 31.24C61.3743 30.3226 61.193 29.2986 61.193 28.168V15.656C61.3637 15.6133 61.6303 15.56 61.993 15.496C62.377 15.432 62.7503 15.4 63.113 15.4C63.881 15.4 64.4357 15.5386 64.777 15.816C65.1397 16.0933 65.321 16.6053 65.321 17.352V28.008C65.321 29.352 65.6943 30.3867 66.441 31.112C67.1877 31.816 68.137 32.168 69.289 32.168C70.441 32.168 71.3903 31.816 72.137 31.112C72.8837 30.3867 73.257 29.352 73.257 28.008V15.656C73.449 15.6133 73.7263 15.56 74.089 15.496C74.4517 15.432 74.8143 15.4 75.177 15.4C75.945 15.4 76.5103 15.5386 76.873 15.816C77.2357 16.0933 77.417 16.6053 77.417 17.352V28.168C77.417 29.2986 77.2357 30.3226 76.873 31.24C76.5103 32.136 75.977 32.9146 75.273 33.576C74.569 34.216 73.7157 34.7173 72.713 35.08C71.7103 35.4213 70.569 35.592 69.289 35.592Z" fill="#002D74"/>
<path d="M94.5443 30.184C94.3309 30.3546 94.0536 30.4933 93.7122 30.6C93.3709 30.7066 92.9762 30.76 92.5283 30.76C91.9736 30.76 91.5042 30.696 91.1202 30.568C90.7576 30.4186 90.5016 30.1626 90.3522 29.8C89.4776 27.624 88.7416 25.768 88.1442 24.232C87.5469 22.696 87.0669 21.384 86.7042 20.296H86.5443C86.4802 21.7253 86.4163 23.0373 86.3522 24.232C86.3096 25.4267 86.2669 26.6 86.2243 27.752C86.1816 28.8826 86.1283 30.0346 86.0642 31.208C86.0216 32.3813 85.9576 33.6507 85.8723 35.016C85.6589 35.08 85.3923 35.144 85.0723 35.208C84.7523 35.272 84.4109 35.304 84.0482 35.304C82.6189 35.304 81.9043 34.7707 81.9043 33.704C81.9043 33.3626 81.9149 32.84 81.9362 32.136C81.9789 31.4106 82.0216 30.5786 82.0642 29.64C82.1283 28.68 82.1922 27.6346 82.2562 26.504C82.3416 25.3733 82.4162 24.232 82.4802 23.08C82.5656 21.928 82.6509 20.7973 82.7363 19.688C82.8216 18.5573 82.8962 17.512 82.9603 16.552C83.1309 16.3386 83.4403 16.1253 83.8883 15.912C84.3576 15.6773 84.9549 15.56 85.6803 15.56C86.4909 15.56 87.1416 15.6986 87.6322 15.976C88.1442 16.232 88.5283 16.6693 88.7842 17.288C89.0616 17.9493 89.3496 18.6746 89.6482 19.464C89.9682 20.2533 90.2882 21.064 90.6082 21.896C90.9282 22.728 91.2376 23.5493 91.5362 24.36C91.8562 25.1493 92.1549 25.896 92.4323 26.6H92.5602C93.2856 24.5946 94.0003 22.6533 94.7043 20.776C95.4296 18.8986 96.0589 17.3093 96.5923 16.008C96.8483 15.88 97.1789 15.7733 97.5843 15.688C97.9896 15.6026 98.4056 15.56 98.8323 15.56C99.6216 15.56 100.251 15.6773 100.72 15.912C101.19 16.1466 101.478 16.4986 101.584 16.968C101.67 17.3733 101.766 18.024 101.872 18.92C101.979 19.7946 102.086 20.7973 102.192 21.928C102.299 23.0586 102.406 24.264 102.512 25.544C102.619 26.824 102.715 28.0613 102.8 29.256C102.886 30.4293 102.96 31.5067 103.024 32.488C103.088 33.4693 103.131 34.2373 103.152 34.792C102.875 34.9627 102.576 35.0907 102.256 35.176C101.958 35.2613 101.584 35.304 101.136 35.304C100.582 35.304 100.091 35.1973 99.6642 34.984C99.2589 34.7493 99.0349 34.3227 98.9922 33.704C98.9069 32.36 98.8323 31.048 98.7682 29.768C98.7043 28.4666 98.6509 27.24 98.6082 26.088C98.5656 24.936 98.5229 23.88 98.4802 22.92C98.4376 21.9386 98.4056 21.096 98.3842 20.392H98.2243C97.8829 21.3946 97.4136 22.6746 96.8163 24.232C96.2189 25.768 95.4616 27.752 94.5443 30.184Z" fill="#002D74"/>
<path d="M125.782 25.352C125.782 27.016 125.537 28.488 125.046 29.768C124.555 31.048 123.873 32.1253 122.998 33C122.145 33.8533 121.121 34.504 119.926 34.952C118.731 35.3787 117.441 35.592 116.054 35.592C114.667 35.592 113.377 35.3787 112.182 34.952C110.987 34.504 109.953 33.8533 109.078 33C108.225 32.1253 107.553 31.048 107.062 29.768C106.571 28.488 106.326 27.016 106.326 25.352C106.326 23.688 106.571 22.2266 107.062 20.968C107.574 19.688 108.267 18.6213 109.142 17.768C110.017 16.8933 111.041 16.2426 112.214 15.816C113.409 15.368 114.689 15.144 116.054 15.144C117.419 15.144 118.689 15.368 119.862 15.816C121.057 16.2426 122.091 16.8933 122.966 17.768C123.841 18.6213 124.523 19.688 125.014 20.968C125.526 22.2266 125.782 23.688 125.782 25.352ZM121.526 25.352C121.526 23.1333 121.025 21.448 120.022 20.296C119.041 19.1226 117.718 18.536 116.054 18.536C114.411 18.536 113.089 19.112 112.086 20.264C111.105 21.416 110.614 23.112 110.614 25.352C110.614 27.592 111.105 29.288 112.086 30.44C113.067 31.592 114.39 32.168 116.054 32.168C117.718 32.168 119.041 31.592 120.022 30.44C121.025 29.288 121.526 27.592 121.526 25.352Z" fill="#002D74"/>
<path d="M144.511 20.648C144.511 21.608 144.255 22.44 143.743 23.144C143.253 23.848 142.506 24.4133 141.503 24.84C142.741 25.2453 143.669 25.8533 144.287 26.664C144.906 27.4746 145.215 28.4347 145.215 29.544C145.215 31.5707 144.479 33.0747 143.007 34.056C141.535 35.0373 139.402 35.528 136.607 35.528C136.202 35.528 135.765 35.5173 135.295 35.496C134.847 35.4746 134.389 35.432 133.919 35.368C133.45 35.3253 132.981 35.2506 132.511 35.144C132.042 35.0586 131.605 34.952 131.199 34.824C130.175 34.4826 129.663 33.8533 129.663 32.936V17.288C129.663 16.8826 129.77 16.5733 129.983 16.36C130.197 16.1466 130.495 15.976 130.879 15.848C131.605 15.6133 132.447 15.4533 133.407 15.368C134.367 15.2613 135.37 15.208 136.415 15.208C138.997 15.208 140.991 15.656 142.399 16.552C143.807 17.4266 144.511 18.792 144.511 20.648ZM140.991 29.384C140.991 28.5307 140.682 27.8586 140.063 27.368C139.466 26.8773 138.591 26.632 137.439 26.632H133.695V31.976C134.101 32.0826 134.581 32.1573 135.135 32.2C135.711 32.2426 136.277 32.264 136.831 32.264C138.133 32.264 139.146 32.04 139.871 31.592C140.618 31.1227 140.991 30.3867 140.991 29.384ZM133.695 23.592H136.927C138.079 23.592 138.933 23.3573 139.487 22.888C140.063 22.4186 140.351 21.768 140.351 20.936C140.351 19.2506 139.05 18.408 136.447 18.408C135.914 18.408 135.402 18.4293 134.911 18.472C134.442 18.5146 134.037 18.568 133.695 18.632V23.592Z" fill="#002D74"/>
<path d="M151.403 35.304C150.593 35.304 150.017 35.1546 149.675 34.856C149.334 34.5573 149.163 34.056 149.163 33.352V15.656C149.355 15.6133 149.633 15.56 149.995 15.496C150.358 15.432 150.721 15.4 151.083 15.4C151.851 15.4 152.417 15.5386 152.779 15.816C153.142 16.0933 153.323 16.6053 153.323 17.352V35.048C153.131 35.0906 152.854 35.144 152.491 35.208C152.15 35.272 151.787 35.304 151.403 35.304Z" fill="#002D74"/>
<path d="M160.465 35.144C159.782 35.144 159.238 34.9413 158.833 34.536C158.449 34.1307 158.257 33.5867 158.257 32.904V15.656C158.428 15.6133 158.694 15.56 159.057 15.496C159.441 15.432 159.814 15.4 160.177 15.4C160.945 15.4 161.51 15.5386 161.873 15.816C162.236 16.0933 162.417 16.6053 162.417 17.352V31.72H170.641C170.748 31.8906 170.854 32.1253 170.961 32.424C171.068 32.7013 171.121 33.0106 171.121 33.352C171.121 33.928 170.982 34.376 170.705 34.696C170.449 34.9946 170.086 35.144 169.617 35.144H160.465Z" fill="#002D74"/>
<path d="M68.297 11.464C68.297 12.04 68.0837 12.5307 67.657 12.936C67.2517 13.3413 66.7397 13.544 66.121 13.544C65.481 13.544 64.9583 13.3413 64.553 12.936C64.169 12.5307 63.977 12.04 63.977 11.464C63.977 10.8667 64.169 10.3653 64.553 9.96C64.9583 9.55467 65.481 9.352 66.121 9.352C66.7397 9.352 67.2517 9.55467 67.657 9.96C68.0837 10.3653 68.297 10.8667 68.297 11.464ZM74.505 11.464C74.505 12.04 74.3023 12.5307 73.897 12.936C73.4917 13.3413 72.9797 13.544 72.361 13.544C71.7423 13.544 71.2197 13.3413 70.793 12.936C70.3877 12.5307 70.185 12.04 70.185 11.464C70.185 10.8667 70.3877 10.3653 70.793 9.96C71.2197 9.55467 71.7423 9.352 72.361 9.352C72.9797 9.352 73.4917 9.55467 73.897 9.96C74.3023 10.3653 74.505 10.8667 74.505 11.464Z" fill="#0AD4EE"/>
<path d="M153.387 11.208C153.387 11.8267 153.174 12.3493 152.747 12.776C152.342 13.2027 151.798 13.416 151.115 13.416C150.433 13.416 149.878 13.2027 149.451 12.776C149.046 12.3493 148.843 11.8267 148.843 11.208C148.843 10.568 149.046 10.0453 149.451 9.64C149.878 9.21333 150.433 9 151.115 9C151.798 9 152.342 9.21333 152.747 9.64C153.174 10.0453 153.387 10.568 153.387 11.208Z" fill="#0AD4EE"/>
</svg>
