<?xml version="1.0" ?><svg width="64px" height="64px" viewBox="0 0 64 64" xmlns="http://www.w3.org/2000/svg"><g id="a"/><g id="b"/><g id="c"/><g id="d"/><g id="e"/><g id="f"/><g id="g"/><g id="h"/><g id="i"/><g id="j"/><g id="k"/><g id="l"/><g id="m"/><g id="n"/><g id="o"/><g id="p"/><g id="q"/><g id="r"/><g id="s"/><g id="t"/><g id="u"/><g id="v"/><g id="w"/><g id="x"/><g id="y"/><g id="a`"/><g id="aa"/><g id="ab"/><g id="ac"/><g id="ad"/><g id="ae"/><g id="af"/><g id="ag"/><g id="ah"/><g id="ai"/><g id="aj"/><g id="ak"/><g id="al"/><g id="am"/><g id="an"/><g id="ao"/><g id="ap"><path d="M20.5,18.91l-1.58,13.75,5.03,12.69c.23,.19,.46,.4,.66,.62l6.71,7.36c.36,.4,.99,.4,1.36,0l6.71-7.36c.21-.22,.43-.43,.66-.63l5.02-12.59-1.58-13.85H20.5Z" fill="#758797" id="aq"/><path d="M23.95,45.36l-3.45-26.44-7.44,6.9-2.57,11.25c.19,.29,.45,.54,.75,.72l11.82,6.94c.31,.19,.61,.4,.89,.63h0Z" fill="#8598ab" id="ar"/><path d="M10.49,37.06l10.01-18.15L5.75,14.88c-.44-.12-.84,.28-.73,.71l5.11,20.7c.07,.27,.2,.53,.36,.76h0Z" fill="#9dacb9" id="as"/><path d="M43.5,18.91l-3.44,26.44c.28-.23,.57-.44,.88-.63l11.82-6.94c.3-.18,.56-.43,.75-.73l-2.2-10.88-7.81-7.27Z" fill="#8598ab" id="at"/><path d="M43.5,18.91l10.01,18.14c.16-.23,.29-.49,.36-.76l5.11-20.7c.11-.44-.29-.83-.73-.71l-14.75,4.03Z" fill="#9dacb9" id="au"/><path d="M32,27.47l4.21-6.63,.18-5.34h-8.78l.27,5.2,4.12,6.78Z" fill="#8598ab" id="av"/><path d="M20.5,18.91l11.5,8.56h0l-4.39-11.97-1.87-4.84c-.14-.37-.65-.4-.83-.05l-4.36,8.21h0l-.05,.1Z" fill="#9dacb9" id="aw"/><path d="M32,27.47l11.5-8.55h0l-.03-.05h0l-4.38-8.26c-.19-.35-.69-.32-.83,.05l-1.87,4.84-4.39,11.97Z" fill="#9dacb9" id="ax"/><path d="M10.73,38.65l11.82,6.94c.49,.29,.93,.65,1.32,1.07l6.71,7.36c.38,.42,.9,.63,1.42,.62,.46,0,.92-.16,1.28-.49,.03-.02,.11-.11,.14-.13l6.71-7.36c.38-.42,.83-.78,1.32-1.07l11.82-6.94c.78-.46,1.36-1.23,1.58-2.11l5.11-20.7c.21-.85-.31-1.72-1.16-1.93-.26-.06-.54-.06-.8,0l-13.98,3.82-4.03-7.6c-.18-.34-.49-.6-.86-.71-.37-.11-.77-.08-1.11,.11-.31,.17-.55,.44-.68,.77l-1.62,4.2h-7.41l-1.62-4.2c-.14-.36-.41-.65-.77-.81-.36-.16-.76-.17-1.12-.03-.33,.13-.6,.37-.76,.68l-4.03,7.6-13.98-3.82c-.41-.11-.84-.06-1.21,.15-.37,.21-.64,.55-.75,.97-.07,.26-.07,.53,0,.8l5.11,20.7c.22,.88,.79,1.65,1.58,2.11Zm1.01-1.73s-.01-.02-.02-.03l8.18-14.83,2.77,21.27-10.93-6.42Zm20.25,15.68l-6.65-7.3c-.13-.14-.31-.23-.45-.36l-3.1-23.82,8.79,6.54c.83,.62,1.99,.62,2.81,0l8.8-6.54-3.1,23.82c-.14,.13-.32,.22-.45,.37l-6.65,7.29Zm-2.96-36.11h5.92l-2.96,8.07-2.96-8.07Zm12.28,26.85l2.77-21.27,8.18,14.83s-.01,.02-.02,.03l-10.93,6.42Zm11.95-8.79l-8.28-15.01,12.86-3.51-4.57,18.53Zm-14.51-22.44l3.45,6.5-8.12,6.04c4.05-11.05,2.73-7.52,4.67-12.54Zm-13.53,0l4.67,12.55-8.12-6.04,3.45-6.51Zm-6.23,7.43l-8.28,15.01L6.15,16.03l12.86,3.51Z"/></g><g id="ay"/><g id="b`"/><g id="ba"/><g id="bb"/><g id="bc"/><g id="bd"/><g id="be"/><g id="bf"/></svg>