<svg xmlns="http://www.w3.org/2000/svg"  viewBox="0 0 64 64" width="64px" height="64px" baseProfile="basic"><path fill="#acb7d0" d="M42.76,59.424c-0.901,0-1.866-0.173-2.869-0.514c-6.178-2.099-13.754-10.699-18.853-21.401	c-0.249-0.523-0.497-1.063-0.743-1.619c-2.697,5.526-4.137,10.397-4.077,13.867c0.033,1.952,0.612,3.391,1.63,4.051	c0.523,0.34,0.982,0.485,1.535,0.485c0.92,0,2.105-0.428,3.522-1.272c0.309-0.185,0.662-0.283,1.022-0.283	c0.701,0,1.359,0.374,1.719,0.976c0.564,0.949,0.253,2.179-0.694,2.743c-2.084,1.243-3.902,1.847-5.559,1.847	c-1.324,0-2.542-0.373-3.724-1.14c-2.17-1.409-3.396-4.015-3.452-7.338c-0.082-4.829,2.085-11.506,6.109-18.841	c-0.729-2.026-1.364-4.063-1.893-6.074c-6.272,1.247-10.348,3.458-10.466,5.723c-0.051,0.958,1.404,2.725,3.928,4.027	c0.979,0.506,1.365,1.714,0.86,2.694c-0.346,0.669-1.026,1.084-1.777,1.084c-0.315,0-0.633-0.077-0.916-0.222	c-3.904-2.015-6.237-5-6.091-7.792c0.225-4.275,5.154-7.676,13.573-9.402c-0.487-2.506-0.751-4.783-0.787-6.779	c-0.083-4.729,1.119-7.761,3.574-9.013c0.701-0.357,1.472-0.569,2.29-0.629c0.14-0.011,0.284-0.017,0.431-0.017	c1.763,0,3.711,0.795,6.13,2.503c0.436,0.307,0.727,0.767,0.817,1.293c0.092,0.527-0.028,1.057-0.336,1.494	c-0.376,0.531-0.987,0.847-1.636,0.847c-0.415,0-0.814-0.127-1.153-0.368c-2.18-1.538-3.354-1.767-3.859-1.767L20.911,8.59	c-0.285,0.021-0.531,0.086-0.764,0.205c-0.921,0.47-1.44,2.48-1.389,5.376c0.031,1.756,0.288,3.885,0.745,6.201	c1.938-0.247,3.986-0.41,6.108-0.487c6.649-8.473,13.914-13.837,19.028-14.031l0.293-0.005c1.338,0,2.483,0.32,3.5,0.979	c2.467,1.603,4.312,5.25,2.874,9.789c-0.264,0.835-1.028,1.397-1.902,1.397c-0.207,0-0.413-0.032-0.611-0.096	c-0.505-0.16-0.922-0.509-1.168-0.983c-0.246-0.475-0.293-1.017-0.131-1.526c0.803-2.532-0.044-4.448-1.239-5.224	c-0.344-0.223-0.778-0.336-1.293-0.336l-0.164,0.004c-2.843,0.107-8.168,3.258-14.019,10.02c0.586,0.018,1.181,0.042,1.79,0.074	c17.396,0.912,29.755,6.642,29.39,13.623c-0.107,2.033-1.247,4.941-6.067,7.249c-0.265,0.128-0.564,0.196-0.862,0.196	c-0.766,0-1.475-0.446-1.806-1.136c-0.476-0.995-0.054-2.192,0.941-2.667c1.378-0.66,3.703-2.037,3.798-3.851	c0.07-1.336-1.604-3.505-6.517-5.583c-4.934-2.087-11.712-3.449-19.086-3.836c-1.423-0.073-2.671-0.108-3.812-0.108	c0,0-0.741,0.003-0.938,0.006c-0.87,1.178-1.726,2.414-2.548,3.679c-0.794,1.225-1.576,2.505-2.329,3.811	c0.608,1.57,1.252,3.069,1.915,4.462c4.592,9.637,11.389,17.587,16.528,19.334c0.586,0.198,1.116,0.299,1.576,0.299	c0.345,0,0.653-0.058,0.919-0.171c2.304-1.782,3.047-10.362-2.635-23.446c-0.213-0.489-0.223-1.033-0.027-1.531	c0.196-0.497,0.574-0.888,1.064-1.101c0.254-0.11,0.521-0.166,0.797-0.166c0.798,0,1.519,0.473,1.835,1.206	c5.858,13.49,6.303,24.914,1.104,28.425l-0.155,0.094C44.739,59.202,43.784,59.424,42.76,59.424z M20.422,24.287	c0.188,0.7,0.392,1.406,0.607,2.115c0.222-0.353,0.447-0.708,0.678-1.062c0.269-0.414,0.547-0.832,0.845-1.268	C21.829,24.133,21.118,24.204,20.422,24.287z"/><path fill="#8d6c9f" d="M21.054,5.584c1.539,0,3.326,0.747,5.553,2.32c0.452,0.318,0.56,0.942,0.241,1.394	c-0.195,0.276-0.504,0.424-0.819,0.424c-0.199,0-0.4-0.059-0.575-0.183c-1.849-1.304-3.341-1.951-4.437-1.951	c-0.058,0-0.115,0.002-0.171,0.005c-0.425,0.032-0.802,0.134-1.151,0.312c-1.327,0.677-1.997,2.851-1.936,6.286	c0.038,2.117,0.378,4.622,0.954,7.299c2.286-0.329,4.765-0.54,7.4-0.619c6.405-8.272,13.611-13.828,18.565-14.016	c0.086-0.003,0.171-0.004,0.255-0.004c1.143,0,2.114,0.273,2.956,0.818c2.148,1.396,3.744,4.61,2.465,8.647	c-0.134,0.424-0.525,0.699-0.949,0.699c-0.101,0-0.204-0.016-0.306-0.048c-0.527-0.166-0.818-0.729-0.651-1.255	c0.962-3.034-0.135-5.383-1.648-6.365c-0.503-0.327-1.12-0.497-1.837-0.497c-0.068,0-0.138,0.002-0.208,0.005	c-3.606,0.136-9.832,4.26-16.086,11.985c1.215,0.003,2.474,0.036,3.85,0.107c16.545,0.868,28.772,6.272,28.442,12.572	c-0.093,1.763-1.122,4.303-5.5,6.399c-0.139,0.067-0.286,0.098-0.431,0.098c-0.373,0-0.731-0.209-0.903-0.568	c-0.238-0.498-0.027-1.095,0.471-1.334c1.928-0.923,4.249-2.487,4.365-4.7c0.229-4.372-10.384-9.622-26.549-10.47	c-1.38-0.071-2.65-0.11-3.866-0.11c-0.116,0-0.233,0-0.348,0.001c-0.369,0.001-0.734,0.006-1.098,0.012	c-0.967,1.29-1.93,2.667-2.879,4.127c-0.931,1.436-1.792,2.862-2.593,4.27c0.646,1.701,1.353,3.377,2.115,4.977	c4.699,9.862,11.735,18.025,17.11,19.851c0.693,0.235,1.326,0.352,1.897,0.352c0.531,0,1.008-0.101,1.429-0.304	c3.207-2.267,3.254-12.088-2.228-24.711c-0.221-0.507,0.012-1.096,0.519-1.316c0.13-0.056,0.265-0.083,0.398-0.083	c0.387,0,0.754,0.225,0.917,0.602c5.573,12.833,6.174,24.018,1.462,27.2l-0.105,0.062c-0.721,0.367-1.519,0.551-2.385,0.551	c-0.793,0-1.644-0.153-2.547-0.46c-5.939-2.018-13.282-10.41-18.272-20.884c-0.552-1.159-1.073-2.351-1.565-3.557	c-3.354,6.375-5.226,12.181-5.157,16.252c0.039,2.295,0.779,4.025,2.086,4.873c0.541,0.352,1.19,0.646,2.079,0.646	c0.987,0,2.272-0.363,4.034-1.414c0.161-0.096,0.337-0.142,0.511-0.142c0.341,0,0.673,0.175,0.86,0.489	c0.282,0.475,0.127,1.088-0.348,1.371c-1.913,1.141-3.558,1.706-5.047,1.706c-1.133,0-2.177-0.328-3.18-0.979	c-1.881-1.222-2.945-3.536-2.996-6.517c-0.081-4.789,2.142-11.433,6.204-18.738c-0.899-2.45-1.658-4.926-2.25-7.315	C9.933,25.043,5.128,27.564,4.97,30.582c-0.081,1.526,1.757,3.569,4.469,4.968c0.49,0.253,0.683,0.856,0.43,1.347	c-0.178,0.344-0.526,0.542-0.888,0.542c-0.155,0-0.312-0.036-0.459-0.112c-3.494-1.803-5.673-4.492-5.549-6.85	c0.21-3.995,5.5-7.151,13.755-8.665c-0.586-2.755-0.928-5.348-0.968-7.586c-0.076-4.314,0.942-7.041,3.028-8.104	c0.583-0.297,1.226-0.473,1.91-0.523C20.815,5.589,20.933,5.584,21.054,5.584 M20.746,28.784c0.573-0.959,1.169-1.925,1.8-2.9	c0.659-1.015,1.34-1.993,2.029-2.951c-1.897,0.1-3.707,0.271-5.407,0.507C19.606,25.19,20.137,26.988,20.746,28.784 M21.054,3.584	c-0.172,0-0.343,0.007-0.511,0.02c-0.945,0.07-1.843,0.318-2.663,0.735c-2.825,1.44-4.211,4.778-4.12,9.922	c0.032,1.796,0.243,3.804,0.627,5.99c-8.316,1.894-13.17,5.53-13.411,10.121c-0.168,3.19,2.372,6.536,6.629,8.732	c0.427,0.219,0.902,0.335,1.377,0.335c1.126,0,2.147-0.622,2.665-1.624c0.758-1.471,0.18-3.283-1.288-4.042	c-2.364-1.22-3.369-2.689-3.39-3.096c0.06-1.138,2.474-3.212,8.748-4.595c0.443,1.598,0.951,3.21,1.519,4.816	c-4.023,7.422-6.1,13.958-6.016,18.943c0.062,3.667,1.45,6.564,3.906,8.16c1.331,0.864,2.767,1.301,4.269,1.301	c1.841,0,3.827-0.65,6.071-1.988c1.42-0.846,1.888-2.69,1.042-4.111c-0.541-0.906-1.528-1.466-2.579-1.466	c-0.541,0-1.073,0.147-1.539,0.426c-1.566,0.933-2.5,1.13-3.007,1.13c-0.359,0-0.627-0.088-0.989-0.323	c-0.721-0.468-1.149-1.645-1.176-3.23c-0.048-2.865,1.051-6.92,3.075-11.473c5.282,10.942,12.824,19.398,19.277,21.59	c1.106,0.376,2.179,0.567,3.19,0.567c1.184,0,2.292-0.259,3.293-0.769l0.057-0.029l0.055-0.033l0.105-0.062l0.051-0.03l0.049-0.033	c5.611-3.79,5.311-15.707-0.747-29.654c-0.473-1.095-1.554-1.805-2.751-1.805c-0.413,0-0.814,0.083-1.194,0.248	c-0.736,0.32-1.303,0.906-1.597,1.652c-0.294,0.746-0.28,1.562,0.04,2.297c5.493,12.65,4.704,20.611,3.045,22.166	c-0.119,0.033-0.256,0.05-0.412,0.05c-0.351,0-0.773-0.083-1.255-0.246c-4.826-1.64-11.533-9.554-15.947-18.817	c-0.589-1.235-1.162-2.559-1.71-3.947c0.669-1.146,1.36-2.271,2.061-3.352c0.717-1.104,1.461-2.186,2.218-3.227	c0.029,0,0.058,0,0.087,0l0.341-0.001c1.125,0,2.356,0.035,3.763,0.107c7.259,0.381,13.917,1.716,18.746,3.758	c4.414,1.867,5.952,3.78,5.908,4.61c-0.049,0.934-1.257,2.056-3.231,3.001c-0.722,0.346-1.267,0.952-1.534,1.707	c-0.267,0.756-0.223,1.57,0.122,2.293c0.496,1.036,1.559,1.705,2.708,1.705c0.448,0,0.897-0.103,1.3-0.297	c5.258-2.517,6.507-5.792,6.628-8.095c0.4-7.638-11.928-13.647-30.018-14.657c5.067-5.434,9.565-8.025,11.89-8.113	c0.053-0.002,0.093-0.003,0.132-0.003c0.318,0,0.569,0.058,0.746,0.174c0.851,0.552,1.473,2.065,0.833,4.084	c-0.242,0.764-0.172,1.577,0.197,2.289c0.37,0.712,0.994,1.236,1.759,1.478c0.288,0.093,0.597,0.141,0.908,0.141	c1.312,0,2.46-0.843,2.856-2.096c1.596-5.038-0.498-9.119-3.282-10.927c-1.169-0.758-2.53-1.141-4.046-1.141	c-0.107,0-0.214,0.002-0.323,0.006c-5.414,0.206-12.658,5.44-19.497,14.049c-1.65,0.07-3.256,0.192-4.799,0.364	c-0.339-1.903-0.529-3.647-0.555-5.114c-0.059-3.323,0.651-4.37,0.844-4.469c0.073-0.037,0.187-0.083,0.392-0.099	c0.265,0,1.221,0.114,3.307,1.586c0.505,0.358,1.104,0.549,1.728,0.549c0.973,0,1.89-0.474,2.452-1.269	C28.944,9.796,29.123,9,28.987,8.211c-0.137-0.79-0.573-1.48-1.229-1.942C25.164,4.438,23.033,3.584,21.054,3.584L21.054,3.584z"/><circle cx="32.009" cy="31.999" r="3.991" fill="#acb7d0"/><path fill="#8d6c9f" d="M32.009,29.008c1.652,0,2.991,1.339,2.991,2.991c0,1.652-1.339,2.991-2.991,2.991	c-1.652,0-2.991-1.339-2.991-2.991C29.018,30.347,30.357,29.008,32.009,29.008 M32.009,27.008c-2.752,0-4.991,2.239-4.991,4.991	c0,2.752,2.239,4.991,4.991,4.991S37,34.751,37,31.999C37,29.247,34.761,27.008,32.009,27.008L32.009,27.008z"/><path fill="#8d6c9f" d="M8.363,17.471c-0.518,0-0.955-0.398-0.996-0.922c-0.043-0.551,0.369-1.032,0.92-1.075l1.993-0.155	c0.567-0.045,1.031,0.37,1.074,0.919c0.043,0.551-0.369,1.032-0.92,1.075l-1.993,0.155C8.415,17.47,8.389,17.471,8.363,17.471z"/><path fill="#8d6c9f" d="M10.415,11.967c-0.038,0-0.078-0.002-0.117-0.007l-1.986-0.232c-0.549-0.064-0.941-0.561-0.877-1.109	c0.064-0.548,0.557-0.945,1.109-0.877l1.986,0.232c0.549,0.064,0.941,0.561,0.877,1.109C11.348,11.592,10.916,11.967,10.415,11.967z"/><path fill="#8d6c9f" d="M11.782,6.953c-0.145,0-0.291-0.031-0.431-0.098L9.547,5.991C9.049,5.752,8.838,5.155,9.076,4.657	c0.238-0.498,0.834-0.71,1.334-0.47l1.805,0.864c0.498,0.238,0.709,0.835,0.471,1.333C12.514,6.743,12.155,6.953,11.782,6.953z"/><path fill="#8d6c9f" d="M53.783,48.018c-0.521,0-0.96-0.403-0.997-0.931c-0.038-0.551,0.378-1.029,0.929-1.067l1.995-0.139	c0.532-0.039,1.028,0.377,1.067,0.928c0.038,0.551-0.378,1.029-0.929,1.067l-1.995,0.139C53.83,48.017,53.807,48.018,53.783,48.018z"/><path fill="#8d6c9f" d="M55.712,53.319c-0.035,0-0.071-0.002-0.106-0.006l-1.989-0.212c-0.55-0.058-0.947-0.551-0.889-1.1	c0.059-0.549,0.549-0.948,1.1-0.888l1.989,0.212c0.55,0.058,0.947,0.551,0.889,1.1C56.65,52.938,56.217,53.319,55.712,53.319z"/><path fill="#8d6c9f" d="M54.438,58.702c-0.124,0-0.25-0.023-0.372-0.072l-1.856-0.743c-0.513-0.205-0.762-0.787-0.557-1.3	c0.206-0.514,0.789-0.763,1.301-0.557l1.856,0.743c0.513,0.205,0.762,0.787,0.557,1.3C55.21,58.464,54.835,58.702,54.438,58.702z"/></svg>