<svg width="24" height="24" viewBox="0 0 24 24" fill="none" xmlns="http://www.w3.org/2000/svg">
<path fill-rule="evenodd" clip-rule="evenodd" d="M12 1C12.5523 1 13 1.44772 13 2V6C13 6.55228 12.5523 7 12 7C11.4477 7 11 6.55228 11 6V2C11 1.44772 11.4477 1 12 1Z" fill="currentColor"/>
<path fill-rule="evenodd" clip-rule="evenodd" d="M12 17C12.5523 17 13 17.4477 13 18V22C13 22.5523 12.5523 23 12 23C11.4477 23 11 22.5523 11 22V18C11 17.4477 11.4477 17 12 17Z" fill="currentColor"/>
<path fill-rule="evenodd" clip-rule="evenodd" d="M4.29289 4.29289C4.68342 3.90237 5.31658 3.90237 5.70711 4.29289L8.70711 7.29289C9.09763 7.68342 9.09763 8.31658 8.70711 8.70711C8.31658 9.09763 7.68342 9.09763 7.29289 8.70711L4.29289 5.70711C3.90237 5.31658 3.90237 4.68342 4.29289 4.29289Z" fill="currentColor"/>
<path fill-rule="evenodd" clip-rule="evenodd" d="M15.2929 15.2929C15.6834 14.9024 16.3166 14.9024 16.7071 15.2929L19.7071 18.2929C20.0976 18.6834 20.0976 19.3166 19.7071 19.7071C19.3166 20.0976 18.6834 20.0976 18.2929 19.7071L15.2929 16.7071C14.9024 16.3166 14.9024 15.6834 15.2929 15.2929Z" fill="currentColor"/>
<path fill-rule="evenodd" clip-rule="evenodd" d="M1 12C1 11.4477 1.44772 11 2 11H6C6.55228 11 7 11.4477 7 12C7 12.5523 6.55228 13 6 13H2C1.44772 13 1 12.5523 1 12Z" fill="currentColor"/>
<path fill-rule="evenodd" clip-rule="evenodd" d="M17 12C17 11.4477 17.4477 11 18 11H22C22.5523 11 23 11.4477 23 12C23 12.5523 22.5523 13 22 13H18C17.4477 13 17 12.5523 17 12Z" fill="currentColor"/>
<path fill-rule="evenodd" clip-rule="evenodd" d="M8.70711 15.2929C9.09763 15.6834 9.09763 16.3166 8.70711 16.7071L5.70711 19.7071C5.31658 20.0976 4.68342 20.0976 4.29289 19.7071C3.90237 19.3166 3.90237 18.6834 4.29289 18.2929L7.29289 15.2929C7.68342 14.9024 8.31658 14.9024 8.70711 15.2929Z" fill="currentColor"/>
<path fill-rule="evenodd" clip-rule="evenodd" d="M19.7071 4.29289C20.0976 4.68342 20.0976 5.31658 19.7071 5.70711L16.7071 8.70711C16.3166 9.09763 15.6834 9.09763 15.2929 8.70711C14.9024 8.31658 14.9024 7.68342 15.2929 7.29289L18.2929 4.29289C18.6834 3.90237 19.3166 3.90237 19.7071 4.29289Z" fill="currentColor"/>
</svg>
