<svg width="24" height="24" viewBox="0 0 24 24" fill="none" xmlns="http://www.w3.org/2000/svg">
<path fill-rule="evenodd" clip-rule="evenodd" d="M14.7552 2.03042C15.1993 1.91831 15.6627 2.1222 15.8802 2.52531L20.2895 10.7009C21.3675 12.6997 19.9199 15.125 17.649 15.125H16V21C16 21.5523 15.5523 22 15 22C14.4477 22 14 21.5523 14 21V3C14 2.542 14.3111 2.14254 14.7552 2.03042ZM16 13.125H17.649C18.406 13.125 18.8885 12.3166 18.5292 11.6503L16 6.96081V13.125Z" fill="currentColor"/>
<path fill-rule="evenodd" clip-rule="evenodd" d="M4 2C4.55228 2 5 2.44772 5 3V9C5 9.55229 5.44772 10 6 10H9C9.55228 10 10 9.55229 10 9V3C10 2.44772 10.4477 2 11 2C11.5523 2 12 2.44772 12 3V9C12 10.6569 10.6569 12 9 12H6C4.34315 12 3 10.6569 3 9V3C3 2.44772 3.44772 2 4 2Z" fill="currentColor"/>
<path fill-rule="evenodd" clip-rule="evenodd" d="M7.5 2C8.05228 2 8.5 2.44772 8.5 3L8.5 21C8.5 21.5523 8.05229 22 7.5 22C6.94772 22 6.5 21.5523 6.5 21L6.5 3C6.5 2.44772 6.94772 2 7.5 2Z" fill="currentColor"/>
</svg>
