<svg width="24" height="24" viewBox="0 0 24 24" fill="none" xmlns="http://www.w3.org/2000/svg">
<path fill-rule="evenodd" clip-rule="evenodd" d="M1 19C1 18.4477 1.44772 18 2 18H22C22.5523 18 23 18.4477 23 19C23 19.5523 22.5523 20 22 20H2C1.44772 20 1 19.5523 1 19Z" fill="currentColor"/>
<path fill-rule="evenodd" clip-rule="evenodd" d="M12 8C7.58172 8 4 11.5817 4 16C4 16.5523 3.55228 17 3 17C2.44772 17 2 16.5523 2 16C2 10.4772 6.47715 6 12 6C17.5228 6 22 10.4772 22 16C22 16.5523 21.5523 17 21 17C20.4477 17 20 16.5523 20 16C20 11.5817 16.4183 8 12 8Z" fill="currentColor"/>
<path d="M13.5 6C13.5 6.82843 12.8284 7.5 12 7.5C11.1716 7.5 10.5 6.82843 10.5 6C10.5 5.17157 11.1716 4.5 12 4.5C12.8284 4.5 13.5 5.17157 13.5 6Z" fill="currentColor"/>
</svg>
