<svg width="24" height="24" viewBox="0 0 24 24" fill="none" xmlns="http://www.w3.org/2000/svg">
<path fill-rule="evenodd" clip-rule="evenodd" d="M21.2071 2.79289C21.5976 3.18342 21.5976 3.81658 21.2071 4.20711L11.7071 13.7071C11.3166 14.0976 10.6834 14.0976 10.2929 13.7071C9.90237 13.3166 9.90237 12.6834 10.2929 12.2929L19.7929 2.79289C20.1834 2.40237 20.8166 2.40237 21.2071 2.79289Z" fill="currentColor"/>
<path fill-rule="evenodd" clip-rule="evenodd" d="M19.7093 1.74225C21.291 1.18868 22.8113 2.70903 22.2578 4.29067L16.7771 19.9496C16.1787 21.6593 13.7975 21.7565 13.0618 20.1012L10.2424 13.7576L3.89881 10.9382C2.24357 10.2026 2.34071 7.82128 4.05039 7.22289L19.7093 1.74225ZM20.37 3.62997L4.71109 9.11061L11.4062 12.0862C11.6324 12.1867 11.8133 12.3676 11.9138 12.5939L14.8894 19.2889L20.37 3.62997Z" fill="currentColor"/>
</svg>
