<svg width="24" height="24" viewBox="0 0 24 24" fill="none" xmlns="http://www.w3.org/2000/svg">
<path fill-rule="evenodd" clip-rule="evenodd" d="M10.2053 2.38343C10.938 0.89356 13.062 0.893566 13.7947 2.38343L16.0643 6.99858L21.1476 7.74434C22.7851 7.98458 23.4388 9.9963 22.2554 11.1533L18.574 14.7523L19.442 19.8317C19.7213 21.4666 18.0038 22.7115 16.5369 21.9373L12 19.5424L7.46305 21.9373C5.99623 22.7115 4.27864 21.4666 4.55801 19.8317L5.42595 14.7523L1.74462 11.1533C0.561173 9.9963 1.21492 7.98458 2.85244 7.74434L7.93565 6.99858L10.2053 2.38343ZM12 3.26603L9.49835 8.35297C9.3531 8.64833 9.07181 8.8533 8.74615 8.90108L3.14275 9.72316L7.19906 13.6887C7.43388 13.9183 7.54102 14.2485 7.48571 14.5722L6.52944 20.1685L11.5332 17.5273C11.8253 17.3731 12.1747 17.3731 12.4668 17.5273L17.4706 20.1685L16.5143 14.5722C16.459 14.2485 16.5661 13.9183 16.8009 13.6887L20.8572 9.72316L15.2538 8.90108C14.9282 8.8533 14.6469 8.64833 14.5016 8.35297L12 3.26603Z" fill="currentColor"/>
</svg>
