<svg width="25" height="24" viewBox="0 0 25 24" fill="none" xmlns="http://www.w3.org/2000/svg">
<path d="M6.5 11L6.5 22H4.83C4.26404 22.01 3.7141 21.8119 3.28459 21.4432C2.85507 21.0745 2.57587 20.5609 2.5 20L2.5 13C2.57587 12.4391 2.85507 11.9255 3.28459 11.5568C3.7141 11.1881 4.26404 10.99 4.83 11H6.5Z" fill="#0AD4EE"/>
<path d="M8.5 11L12.5 2C13.2957 2 14.0587 2.31607 14.6213 2.87868C15.1839 3.44129 15.5 4.20435 15.5 5V9L21.16 9C21.4499 8.99672 21.7371 9.05651 22.0016 9.17522C22.2661 9.29393 22.5016 9.46874 22.6919 9.68752C22.8821 9.9063 23.0225 10.1638 23.1033 10.4423C23.1842 10.7207 23.2035 11.0134 23.16 11.3L21.78 20.3C21.7077 20.7769 21.4654 21.2116 21.0979 21.524C20.7304 21.8364 20.2623 22.0055 19.78 22L8.5 22L8.5 11Z" fill="#0AD4EE"/>
</svg>
