<svg width="24" height="24" viewBox="0 0 24 24" fill="none" xmlns="http://www.w3.org/2000/svg">
<path d="M18.3827 13V2H20.0527C20.6186 1.98999 21.1686 2.18814 21.5981 2.55682C22.0276 2.9255 22.3068 3.43906 22.3827 4V11C22.3068 11.5609 22.0276 12.0745 21.5981 12.4432C21.1686 12.8119 20.6186 13.01 20.0527 13H18.3827Z" fill="currentColor"/>
<path d="M16.3827 13L12.3827 22C11.587 22 10.8239 21.6839 10.2613 21.1213C9.69873 20.5587 9.38266 19.7957 9.38266 19V15H3.72266C3.43275 15.0033 3.1456 14.9435 2.88109 14.8248C2.61658 14.7061 2.38104 14.5313 2.1908 14.3125C2.00056 14.0937 1.86015 13.8362 1.77932 13.5578C1.69849 13.2793 1.67915 12.9866 1.72266 12.7L3.10266 3.7C3.17498 3.2231 3.41723 2.7884 3.78475 2.476C4.15228 2.1636 4.62033 1.99455 5.10266 2H16.3827V13Z" fill="currentColor"/>
</svg>
