<svg width="25" height="24" viewBox="0 0 25 24" fill="none" xmlns="http://www.w3.org/2000/svg">
<path d="M18.8826 13V2H20.5526C21.1186 1.98999 21.6685 2.18813 22.0981 2.55681C22.5276 2.9255 22.8068 3.43905 22.8826 4V11C22.8068 11.5609 22.5276 12.0745 22.0981 12.4432C21.6685 12.8119 21.1186 13.01 20.5526 13H18.8826Z" fill="white"/>
<path d="M16.8826 13L12.8826 22C12.087 22 11.3239 21.6839 10.7613 21.1213C10.1987 20.5587 9.88265 19.7956 9.88265 19V15H4.22265C3.93274 15.0033 3.64558 14.9435 3.38108 14.8248C3.11657 14.7061 2.88103 14.5313 2.69079 14.3125C2.50055 14.0937 2.36014 13.8362 2.27931 13.5577C2.19847 13.2793 2.17914 12.9866 2.22265 12.7L3.60265 3.7C3.67497 3.22309 3.91721 2.78839 4.28474 2.47599C4.65227 2.16359 5.12032 1.99454 5.60265 2H16.8826V13Z" fill="white"/>
</svg>
