<svg width="24" height="24" viewBox="0 0 24 24" fill="none" xmlns="http://www.w3.org/2000/svg">
<path d="M6 11L6 22H4.33C3.76404 22.01 3.2141 21.8119 2.78459 21.4432C2.35507 21.0745 2.07587 20.5609 2 20L2 13C2.07587 12.4391 2.35507 11.9255 2.78459 11.5568C3.2141 11.1881 3.76404 10.99 4.33 11H6Z" fill="white"/>
<path d="M8 11L12 2C12.7957 2 13.5587 2.31607 14.1213 2.87868C14.6839 3.44129 15 4.20435 15 5V9L20.66 9C20.9499 8.99672 21.2371 9.05651 21.5016 9.17522C21.7661 9.29393 22.0016 9.46874 22.1919 9.68752C22.3821 9.9063 22.5225 10.1638 22.6033 10.4423C22.6842 10.7207 22.7035 11.0134 22.66 11.3L21.28 20.3C21.2077 20.7769 20.9654 21.2116 20.5979 21.524C20.2304 21.8364 19.7623 22.0055 19.28 22L8 22L8 11Z" fill="white"/>
</svg>
