<svg width="24" height="24" viewBox="0 0 24 24" fill="none" xmlns="http://www.w3.org/2000/svg">
<path fill-rule="evenodd" clip-rule="evenodd" d="M3.65366 16.4242C4.6917 15.5015 6.07685 15 7.5 15H16.5C17.9232 15 19.3083 15.5015 20.3463 16.4242C21.3882 17.3503 22 18.6334 22 20V22C22 22.5523 21.5523 23 21 23C20.4477 23 20 22.5523 20 22V20C20 19.2449 19.6636 18.4932 19.0176 17.919C18.3678 17.3414 17.4638 17 16.5 17H7.5C6.53621 17 5.63217 17.3414 4.98238 17.919C4.33643 18.4932 4 19.2449 4 20V22C4 22.5523 3.55228 23 3 23C2.44772 23 2 22.5523 2 22V20C2 18.6334 2.61178 17.3503 3.65366 16.4242Z" fill="currentColor"/>
<path fill-rule="evenodd" clip-rule="evenodd" d="M12 4C9.79086 4 8 5.79086 8 8C8 10.2091 9.79086 12 12 12C14.2091 12 16 10.2091 16 8C16 5.79086 14.2091 4 12 4ZM6 8C6 4.68629 8.68629 2 12 2C15.3137 2 18 4.68629 18 8C18 11.3137 15.3137 14 12 14C8.68629 14 6 11.3137 6 8Z" fill="currentColor"/>
</svg>
